<?xml version="1.0" encoding="UTF-8"?>
<svg version="1.1" xmlns="http://www.w3.org/2000/svg" width="104" height="64">
<path d="M0 0 C1.07739258 1.80786133 1.07739258 1.80786133 0.07739258 6.80786133 C5.68739258 6.80786133 11.29739258 6.80786133 17.07739258 6.80786133 C18.28506882 9.22321381 18.05532294 10.2863254 17.73754883 12.94067383 C17.6440918 13.74633789 17.55063477 14.55200195 17.4543457 15.38208008 C17.35057617 16.22383789 17.24680664 17.0655957 17.13989258 17.93286133 C17.03999023 18.78235352 16.94008789 19.6318457 16.8371582 20.50708008 C16.58929874 22.6079841 16.33404073 24.70801282 16.07739258 26.80786133 C12.59177377 27.96973426 9.73340491 27.87433428 6.07739258 27.80786133 C3.86116928 27.69657895 3.86116928 27.69657895 1.07739258 28.87036133 C-1.92260742 29.80786133 -1.92260742 29.80786133 -3.92260742 28.80786133 C-3.59260742 27.15786133 -3.26260742 25.50786133 -2.92260742 23.80786133 C-4.57260742 23.80786133 -6.22260742 23.80786133 -7.92260742 23.80786133 C-8.58260742 25.45786133 -9.24260742 27.10786133 -9.92260742 28.80786133 C-11.24260742 28.47786133 -12.56260742 28.14786133 -13.92260742 27.80786133 C-14.25260742 26.48786133 -14.58260742 25.16786133 -14.92260742 23.80786133 C-17.26572872 24.06347456 -19.60104145 24.40056905 -21.92260742 24.80786133 C-22.25260742 25.46786133 -22.58260742 26.12786133 -22.92260742 26.80786133 C-22.26260742 26.80786133 -21.60260742 26.80786133 -20.92260742 26.80786133 C-21.58260742 28.12786133 -22.24260742 29.44786133 -22.92260742 30.80786133 C-25.41622313 29.60404685 -27.60403825 28.35357411 -29.92260742 26.80786133 C-30.58260742 27.13786133 -31.24260742 27.46786133 -31.92260742 27.80786133 C-32.58260742 27.47786133 -33.24260742 27.14786133 -33.92260742 26.80786133 C-34.25260742 27.46786133 -34.58260742 28.12786133 -34.92260742 28.80786133 C-36.90260742 28.14786133 -38.88260742 27.48786133 -40.92260742 26.80786133 C-41.05538086 26.03700195 -41.1881543 25.26614258 -41.32495117 24.47192383 C-41.50155273 23.4690332 -41.6781543 22.46614258 -41.86010742 21.43286133 C-42.03413086 20.43512695 -42.2081543 19.43739258 -42.38745117 18.40942383 C-42.79972804 15.83876477 -42.79972804 15.83876477 -43.92260742 13.80786133 C-44.14988015 9.26240678 -44.14988015 9.26240678 -42.92260742 6.80786133 C-40.20813763 6.49544678 -37.58351381 6.29449541 -34.86010742 6.18286133 C-34.10149414 6.14418945 -33.34288086 6.10551758 -32.5612793 6.06567383 C-30.68213547 5.97112571 -28.80240406 5.88839377 -26.92260742 5.80786133 C-27.10823242 5.18911133 -27.29385742 4.57036133 -27.48510742 3.93286133 C-27.92260742 1.80786133 -27.92260742 1.80786133 -26.92260742 -0.19213867 C-22.81959819 -0.44665451 -18.71545266 -0.66640313 -14.61010742 -0.87963867 C-13.44286133 -0.9524707 -12.27561523 -1.02530273 -11.07299805 -1.1003418 C-9.95473633 -1.15512695 -8.83647461 -1.20991211 -7.68432617 -1.26635742 C-6.13684692 -1.35276489 -6.13684692 -1.35276489 -4.55810547 -1.44091797 C-1.92260742 -1.19213867 -1.92260742 -1.19213867 0 0 Z " fill="#EFB206" transform="translate(64.922607421875,4.192138671875)"/>
<path d="M0 0 C4.97556199 -0.28705165 7.14137684 -0.06028734 11 3 C13.06381575 2.67156616 13.06381575 2.67156616 15 2 C15.99 2.33 16.98 2.66 18 3 C17.67 2.01 17.34 1.02 17 0 C18.32 0.33 19.64 0.66 21 1 C21 1.66 21 2.32 21 3 C26.01535052 2.67039784 26.01535052 2.67039784 30 0 C33.125 -0.125 33.125 -0.125 36 0 C36.495 1.485 36.495 1.485 37 3 C38.258125 2.814375 39.51625 2.62875 40.8125 2.4375 C43.82744268 1.99267239 45.00468461 2.00156154 48 3 C48.33 2.01 48.66 1.02 49 0 C50.32 0.33 51.64 0.66 53 1 C52.67 1.66 52.34 2.32 52 3 C52.639375 3.144375 53.27875 3.28875 53.9375 3.4375 C56 4 56 4 57 5 C57.1875 7.4375 57.1875 7.4375 57 10 C56.34 10.66 55.68 11.32 55 12 C52.66574212 11.6732039 50.33257494 11.33859959 48 11 C46.59960514 11.12256715 45.20240852 11.28956525 43.8125 11.5 C40.51756755 11.93212229 39.03136166 11.93272667 36 11 C35.34 11.33 34.68 11.66 34 12 C32.33333333 11.66666667 30.66666667 11.33333333 29 11 C28.01 11.495 28.01 11.495 27 12 C25.906875 11.835 24.81375 11.67 23.6875 11.5 C20.19660837 10.81965115 20.19660837 10.81965115 17.5625 11.5 C14.47663009 12.10212096 12.01916038 11.65248801 8.9375 11.19140625 C6.47460489 10.94809605 4.37167993 11.33296502 2 12 C-0.125 9.9375 -0.125 9.9375 -2 7 C-1.25 3.1875 -1.25 3.1875 0 0 Z M2 4 C2.33 5.32 2.66 6.64 3 8 C4.32 7.67 5.64 7.34 7 7 C6.67 5.68 6.34 4.36 6 3 C3.9254644 2.8509288 3.9254644 2.8509288 2 4 Z M31 3 C30.67 3.99 30.34 4.98 30 6 C30.33 6.66 30.66 7.32 31 8 C32.98 7.67 34.96 7.34 37 7 C35.71034824 5.62437146 34.37310707 4.29233607 33 3 C32.34 3 31.68 3 31 3 Z M13 4 C13 5.32 13 6.64 13 8 C13.66 8 14.32 8 15 8 C15 6.68 15 5.36 15 4 C14.34 4 13.68 4 13 4 Z M52 6 C52 7.65 52 9.3 52 11 C52.66 10.67 53.32 10.34 54 10 C54 8.68 54 7.36 54 6 C53.34 6 52.68 6 52 6 Z M17 8 C18 10 18 10 18 10 Z " fill="#A73031" transform="translate(24,37)"/>
<path d="M0 0 C5.61 0 11.22 0 17 0 C18.20767624 2.41535248 17.97793036 3.47846408 17.66015625 6.1328125 C17.5199707 7.34130859 17.5199707 7.34130859 17.37695312 8.57421875 C17.27318359 9.41597656 17.16941406 10.25773437 17.0625 11.125 C16.96259766 11.97449219 16.86269531 12.82398438 16.75976562 13.69921875 C16.51190616 15.80012277 16.25664815 17.90015149 16 20 C12.51438119 21.16187294 9.65601233 21.06647295 6 21 C3.7837767 20.88871762 3.7837767 20.88871762 1 22.0625 C-2 23 -2 23 -4 22 C-3.67 20.35 -3.34 18.7 -3 17 C-3.66 17 -4.32 17 -5 17 C-5 16.34 -5 15.68 -5 15 C-4.03320312 14.70996094 -4.03320312 14.70996094 -3.046875 14.4140625 C-0.65648799 13.11291753 -0.65648799 13.11291753 -0.390625 9.9609375 C-0.34421875 8.77757812 -0.2978125 7.59421875 -0.25 6.375 C-0.1675 4.27125 -0.085 2.1675 0 0 Z " fill="#20AE60" transform="translate(65,11)"/>
<path d="M0 0 C3.96 0 7.92 0 12 0 C12 1.32 12 2.64 12 4 C11.360625 4.12375 10.72125 4.2475 10.0625 4.375 C9.381875 4.58125 8.70125 4.7875 8 5 C7.67 5.66 7.34 6.32 7 7 C7.66 7 8.32 7 9 7 C9 6.34 9 5.68 9 5 C9.99 5 10.98 5 12 5 C12 7.97 12 10.94 12 14 C12.66 14 13.32 14 14 14 C13.34 12.35 12.68 10.7 12 9 C12.99 8.01 13.98 7.02 15 6 C17.24956302 8.24956302 18.00510965 10.06323263 19.1875 13 C19.55230469 13.886875 19.91710937 14.77375 20.29296875 15.6875 C21 18 21 18 20 20 C20.66 20 21.32 20 22 20 C21.34 21.32 20.68 22.64 20 24 C17.50638429 22.79618552 15.31856917 21.54571278 13 20 C12.34 20.33 11.68 20.66 11 21 C10.34 20.67 9.68 20.34 9 20 C8.67 20.66 8.34 21.32 8 22 C6.02 21.34 4.04 20.68 2 20 C1.86722656 19.22914062 1.73445313 18.45828125 1.59765625 17.6640625 C1.42105469 16.66117188 1.24445312 15.65828125 1.0625 14.625 C0.88847656 13.62726562 0.71445312 12.62953125 0.53515625 11.6015625 C0.12287938 9.03090344 0.12287938 9.03090344 -1 7 C-1.22727273 2.45454545 -1.22727273 2.45454545 0 0 Z " fill="#E12717" transform="translate(22,11)"/>
<path d="M0 0 C5.34752797 0.3450018 5.34752797 0.3450018 8 1 C10.30873861 3.78972582 10 5.26799831 10 9 C8.70896357 10.3743291 7.3743291 11.70896357 6 13 C5.67 13.99 5.34 14.98 5 16 C4.34 16 3.68 16 3 16 C2.34 15.34 1.68 14.68 1 14 C0.34 14.66 -0.32 15.32 -1 16 C-3.125 15.625 -3.125 15.625 -5 15 C-4.03320312 14.70996094 -4.03320312 14.70996094 -3.046875 14.4140625 C-0.65648799 13.11291753 -0.65648799 13.11291753 -0.390625 9.9609375 C-0.34421875 8.77757812 -0.2978125 7.59421875 -0.25 6.375 C-0.19328125 5.18648437 -0.1365625 3.99796875 -0.078125 2.7734375 C-0.05234375 1.85820312 -0.0265625 0.94296875 0 0 Z " fill="#2BBE6D" transform="translate(65,11)"/>
<path d="M0 0 C1.32 0.33 2.64 0.66 4 1 C3.67 1.66 3.34 2.32 3 3 C3.639375 3.144375 4.27875 3.28875 4.9375 3.4375 C7 4 7 4 8 5 C8.1875 7.4375 8.1875 7.4375 8 10 C7.34 10.66 6.68 11.32 6 12 C3.66404762 11.68554487 1.33094534 11.3496418 -1 11 C-4.30714584 11.36887653 -4.30714584 11.36887653 -7 12 C-7 9.03 -7 6.06 -7 3 C-4 2 -4 2 -1 3 C-0.67 2.01 -0.34 1.02 0 0 Z M3 6 C3 7.65 3 9.3 3 11 C3.66 10.67 4.32 10.34 5 10 C5 8.68 5 7.36 5 6 C4.34 6 3.68 6 3 6 Z " fill="#962A2B" transform="translate(73,37)"/>
<path d="M0 0 C1.299375 0.185625 2.59875 0.37125 3.9375 0.5625 C8.10560874 1.04242419 11.82523849 0.81854101 15.95703125 0.15625 C18.21219705 -0.01622922 19.83202189 0.40238833 22 1 C23.99963028 1.03845443 26.00051633 1.04544281 28 1 C28.33 2.32 28.66 3.64 29 5 C28.01 5 27.02 5 26 5 C24.205625 5.26103516 24.205625 5.26103516 22.375 5.52734375 C17.85565643 6.11398931 13.531772 5.90415006 9 5.5625 C7.83791016 5.48418945 7.83791016 5.48418945 6.65234375 5.40429688 C4.76775513 5.27633098 2.88379629 5.13914404 1 5 C0.67 3.35 0.34 1.7 0 0 Z M18 2 C19 4 19 4 19 4 Z " fill="#005A2E" transform="translate(28,52)"/>
<path d="M0 0 C0.721875 0.185625 1.44375 0.37125 2.1875 0.5625 C5.15710817 1.02443905 7.08924744 0.59707745 10 0 C11.33568021 0.32380126 12.66923011 0.65657551 14 1 C15.33783393 0.68521554 16.67203709 0.35412344 18 0 C18.66 0.33 19.32 0.66 20 1 C20 2.32 20 3.64 20 5 C18.02 5.99 18.02 5.99 16 7 C16 6.34 16 5.68 16 5 C14.2365625 5.2784375 14.2365625 5.2784375 12.4375 5.5625 C8.38731406 6.08230996 5.00125547 5.7502354 1 5 C0.67 3.35 0.34 1.7 0 0 Z " fill="#00713A" transform="translate(57,52)"/>
<path d="M0 0 C3.3125 -0.3125 3.3125 -0.3125 7 0 C8.9375 2.5 8.9375 2.5 10 5 C7 5 7 5 4 3 C3.67 4.32 3.34 5.64 3 7 C4.98 7 6.96 7 9 7 C9.33 8.32 9.66 9.64 10 11 C4.85798963 12.11410225 4.85798963 12.11410225 2 12 C-0.625 10 -0.625 10 -2 7 C-1.25 3.1875 -1.25 3.1875 0 0 Z " fill="#CF3B3C" transform="translate(24,37)"/>
<path d="M0 0 C0.66 0.33 1.32 0.66 2 1 C2 1.66 2 2.32 2 3 C2.7425 2.690625 3.485 2.38125 4.25 2.0625 C6.50692176 1.1905075 8.6450153 0.52332993 11 0 C10.67 1.65 10.34 3.3 10 5 C10.66 5 11.32 5 12 5 C11.67 5.66 11.34 6.32 11 7 C10.38125 6.814375 9.7625 6.62875 9.125 6.4375 C6.95839822 5.76313824 6.95839822 5.76313824 5 7 C3.33333333 6.66666667 1.66666667 6.33333333 0 6 C-0.99 6.495 -0.99 6.495 -2 7 C-4.00800456 6.71887936 -6.01014051 6.38932033 -8 6 C-3.375 2 -3.375 2 0 2 C0 1.34 0 0.68 0 0 Z " fill="#B93435" transform="translate(53,42)"/>
<path d="M0 0 C1.32 0.33 2.64 0.66 4 1 C4.33 4.63 4.66 8.26 5 12 C4.01 10.68 3.02 9.36 2 8 C1.34 8 0.68 8 0 8 C0.33 10.31 0.66 12.62 1 15 C0.34 15 -0.32 15 -1 15 C-2.125 8.25 -2.125 8.25 -1 6 C-1.99 6 -2.98 6 -4 6 C-4 6.66 -4 7.32 -4 8 C-4.66 8 -5.32 8 -6 8 C-5.67 7.01 -5.34 6.02 -5 5 C-4.01 4.67 -3.02 4.34 -2 4 C-0.79117904 1.99983534 -0.79117904 1.99983534 0 0 Z " fill="#F27261" transform="translate(35,10)"/>
<path d="M0 0 C0.66 0.33 1.32 0.66 2 1 C2 1.66 2 2.32 2 3 C2.66 3 3.32 3 4 3 C4 3.66 4 4.32 4 5 C4.99 5 5.98 5 7 5 C6.67 5.99 6.34 6.98 6 8 C5.01 8 4.02 8 3 8 C1.989375 8.350625 0.97875 8.70125 -0.0625 9.0625 C-3 10 -3 10 -5 9 C-4.67 7.35 -4.34 5.7 -4 4 C-4.66 3.67 -5.32 3.34 -6 3 C-5.195625 2.690625 -4.39125 2.38125 -3.5625 2.0625 C-1.10919595 1.23664655 -1.10919595 1.23664655 0 0 Z " fill="#1EA059" transform="translate(66,24)"/>
<path d="M0 0 C0.66 0 1.32 0 2 0 C2 0.66 2 1.32 2 2 C2.9590625 2.2165625 2.9590625 2.2165625 3.9375 2.4375 C6 3 6 3 7 4 C7.1875 6.4375 7.1875 6.4375 7 9 C6.34 9.66 5.68 10.32 5 11 C2.375 10.625 2.375 10.625 0 10 C0 6.7 0 3.4 0 0 Z M2 5 C2 6.65 2 8.3 2 10 C2.66 9.67 3.32 9.34 4 9 C4 7.68 4 6.36 4 5 C3.34 5 2.68 5 2 5 Z " fill="#CB3B3C" transform="translate(74,38)"/>
<path d="M0 0 C0.66 0 1.32 0 2 0 C2.33 0.66 2.66 1.32 3 2 C3.53625 1.67 4.0725 1.34 4.625 1 C7.5391061 -0.22699204 9.86867708 -0.14233286 13 0 C13.33 1.32 13.66 2.64 14 4 C13.01 4 12.02 4 11 4 C9.700625 4.20625 8.40125 4.4125 7.0625 4.625 C3.76189258 5.06872807 1.81519631 4.99409738 -1 3 C-0.67 2.01 -0.34 1.02 0 0 Z " fill="#00924B" transform="translate(43,53)"/>
<path d="M0 0 C2.375 -0.125 2.375 -0.125 5 0 C5.66 0.66 6.32 1.32 7 2 C6.64059802 5.4742191 4.96693291 8.16761661 3 11 C2.34 11 1.68 11 1 11 C1.55728913 7.65626525 2.35173889 4.96687001 4 2 C2.02 2.66 0.04 3.32 -2 4 C-1.34 2.68 -0.68 1.36 0 0 Z " fill="#FFFAEC" transform="translate(50,9)"/>
<path d="M0 0 C0.7734375 0.2165625 0.7734375 0.2165625 1.5625 0.4375 C4.68509571 1.15809901 7.82550692 1.57266439 11 2 C11 2.99 11 3.98 11 5 C4.375 6.125 4.375 6.125 1 5 C0.67 3.35 0.34 1.7 0 0 Z " fill="#00934A" transform="translate(57,52)"/>
<path d="M0 0 C1.875 0.25 1.875 0.25 4 1 C5.25 3.0625 5.25 3.0625 6 5 C4.37660195 6.70884005 2.70680947 8.37446717 1 10 C0.34 10 -0.32 10 -1 10 C-0.43628586 6.73045798 0.49962266 5.17424117 3 3 C1.68 3 0.36 3 -1 3 C-0.67 2.01 -0.34 1.02 0 0 Z " fill="#DEF5E8" transform="translate(70,14)"/>
<path d="M0 0 C1.32 0.33 2.64 0.66 4 1 C4 1.99 4 2.98 4 4 C4.99 4.66 5.98 5.32 7 6 C6.01 6.495 6.01 6.495 5 7 C3.86649466 9.01669827 3.86649466 9.01669827 3 11 C2.67 11 2.34 11 2 11 C1.34 7.37 0.68 3.74 0 0 Z " fill="#B23435" transform="translate(41,37)"/>
<path d="M0 0 C0.66 0.33 1.32 0.66 2 1 C2 1.99 2 2.98 2 4 C1.34 4 0.68 4 0 4 C-0.33 4.99 -0.66 5.98 -1 7 C-3.31 6.67 -5.62 6.34 -8 6 C-3.375 2 -3.375 2 0 2 C0 1.34 0 0.68 0 0 Z " fill="#842525" transform="translate(53,42)"/>
<path d="M0 0 C1.98 0 3.96 0 6 0 C5.34 1.32 4.68 2.64 4 4 C4.66 4.66 5.32 5.32 6 6 C4.02 6 2.04 6 0 6 C0.66 4.68 1.32 3.36 2 2 C1.34 1.34 0.68 0.68 0 0 Z " fill="#F64849" transform="translate(45,41)"/>
<path d="M0 0 C1.32 0 2.64 0 4 0 C4 2.64 4 5.28 4 8 C3.01 7.34 2.02 6.68 1 6 C1 5.01 1 4.02 1 3 C0.34 2.34 -0.32 1.68 -1 1 C-0.67 0.67 -0.34 0.34 0 0 Z " fill="#EC4445" transform="translate(62,40)"/>
<path d="M0 0 C0.66 0.99 1.32 1.98 2 3 C1.01 4.485 1.01 4.485 0 6 C-0.99 5.67 -1.98 5.34 -3 5 C-3 4.67 -3 4.34 -3 4 C-4.65 3.67 -6.3 3.34 -8 3 C-8 2.67 -8 2.34 -8 2 C-6.865625 1.855625 -5.73125 1.71125 -4.5625 1.5625 C-1.19222799 1.38828522 -1.19222799 1.38828522 0 0 Z " fill="#C9393A" transform="translate(53,38)"/>
<path d="M0 0 C1.65 0 3.3 0 5 0 C5 0.99 5 1.98 5 3 C2 4 2 4 -1 3 C-0.67 2.01 -0.34 1.02 0 0 Z " fill="#00914B" transform="translate(36,54)"/>
<path d="M0 0 C0.66 0 1.32 0 2 0 C2 0.66 2 1.32 2 2 C2.99 2 3.98 2 5 2 C4.67 2.99 4.34 3.98 4 5 C2.33333333 5 0.66666667 5 -1 5 C-1.33 4.01 -1.66 3.02 -2 2 C-1.34 2 -0.68 2 0 2 C0 1.34 0 0.68 0 0 Z " fill="#178548" transform="translate(68,27)"/>
<path d="M0 0 C2 1 2 1 2 1 Z " fill="#000000" transform="translate(72,48)"/>
<path d="" fill="#000000" transform="translate(0,0)"/>
<path d="" fill="#000000" transform="translate(0,0)"/>
<path d="" fill="#000000" transform="translate(0,0)"/>
<path d="" fill="#000000" transform="translate(0,0)"/>
<path d="" fill="#000000" transform="translate(0,0)"/>
<path d="" fill="#000000" transform="translate(0,0)"/>
<path d="" fill="#000000" transform="translate(0,0)"/>
<path d="" fill="#000000" transform="translate(0,0)"/>
<path d="" fill="#000000" transform="translate(0,0)"/>
<path d="" fill="#000000" transform="translate(0,0)"/>
<path d="" fill="#000000" transform="translate(0,0)"/>
<path d="" fill="#000000" transform="translate(0,0)"/>
<path d="" fill="#000000" transform="translate(0,0)"/>
<path d="" fill="#000000" transform="translate(0,0)"/>
<path d="" fill="#000000" transform="translate(0,0)"/>
<path d="" fill="#000000" transform="translate(0,0)"/>
<path d="" fill="#000000" transform="translate(0,0)"/>
<path d="" fill="#000000" transform="translate(0,0)"/>
<path d="" fill="#000000" transform="translate(0,0)"/>
<path d="" fill="#000000" transform="translate(0,0)"/>
<path d="" fill="#000000" transform="translate(0,0)"/>
<path d="" fill="#000000" transform="translate(0,0)"/>
<path d="" fill="#000000" transform="translate(0,0)"/>
<path d="" fill="#000000" transform="translate(0,0)"/>
<path d="" fill="#000000" transform="translate(0,0)"/>
<path d="" fill="#000000" transform="translate(0,0)"/>
<path d="" fill="#000000" transform="translate(0,0)"/>
<path d="" fill="#000000" transform="translate(0,0)"/>
</svg>
